REM DIRINDEX 1\2\4,1\2\5,1\2\6,1\3\7,1\3\8,1\3\9,1\3\10
REM DIRNAME cjc057,folder01,folder02,folder03,folder04,folder05,folder06,folder07,folder08,folder09
TITLE ""
FILE "a_122.mp3" MP3
  TRACK 01 AUDIO
    TITLE "0:"
    INDEX 01 00:00:00
  TRACK 02 AUDIO
    TITLE "4:cjc057_02180"
    INDEX 01 00:00:15
  TRACK 03 AUDIO
    TITLE "0:"
    INDEX 01 00:01:48
  TRACK 04 AUDIO
    TITLE "5:cjc057_02181"
    INDEX 01 00:02:04
  TRACK 05 AUDIO
    TITLE "0:"
    INDEX 01 00:03:10
  TRACK 06 AUDIO
    TITLE "4:cjc057_02182"
    INDEX 01 00:04:17
  TRACK 07 AUDIO
    TITLE "0:"
    INDEX 01 00:05:48
  TRACK 08 AUDIO
    TITLE "5:cjc057_02183"
    INDEX 01 00:06:06
  TRACK 09 AUDIO
    TITLE "0:"
    INDEX 01 00:08:64
  TRACK 10 AUDIO
    TITLE "4:cjc057_02184"
    INDEX 01 00:09:71
  TRACK 11 AUDIO
    TITLE "0:"
    INDEX 01 00:11:15
  TRACK 12 AUDIO
    TITLE "5:cjc057_02185"
    INDEX 01 00:11:46
  TRACK 13 AUDIO
    TITLE "0:"
    INDEX 01 00:13:51
  TRACK 14 AUDIO
    TITLE "4:cjc057_02186"
    INDEX 01 00:14:56
  TRACK 15 AUDIO
    TITLE "0:"
    INDEX 01 00:16:18
  TRACK 16 AUDIO
    TITLE "5:cjc057_02187"
    INDEX 01 00:16:48
  TRACK 17 AUDIO
    TITLE "0:"
    INDEX 01 00:17:72
  TRACK 18 AUDIO
    TITLE "4:cjc057_02188"
    INDEX 01 00:19:03
  TRACK 19 AUDIO
    TITLE "0:"
    INDEX 01 00:20:24
  TRACK 20 AUDIO
    TITLE "5:cjc057_02189"
    INDEX 01 00:20:55
  TRACK 21 AUDIO
    TITLE "0:"
    INDEX 01 00:23:20
  TRACK 22 AUDIO
    TITLE "4:cjc057_02190"
    INDEX 01 00:24:24
  TRACK 23 AUDIO
    TITLE "0:"
    INDEX 01 00:25:62
  TRACK 24 AUDIO
    TITLE "5:cjc057_02191"
    INDEX 01 00:26:17
  TRACK 25 AUDIO
    TITLE "0:"
    INDEX 01 00:28:45
  TRACK 26 AUDIO
    TITLE "4:cjc057_02192"
    INDEX 01 00:29:50
  TRACK 27 AUDIO
    TITLE "0:"
    INDEX 01 00:31:02
  TRACK 28 AUDIO
    TITLE "5:cjc057_02193"
    INDEX 01 00:31:33
  TRACK 29 AUDIO
    TITLE "0:"
    INDEX 01 00:33:56
  TRACK 30 AUDIO
    TITLE "4:cjc057_02194"
    INDEX 01 00:34:59
  TRACK 31 AUDIO
    TITLE "0:"
    INDEX 01 00:36:15
  TRACK 32 AUDIO
    TITLE "5:cjc057_02195"
    INDEX 01 00:36:46
  TRACK 33 AUDIO
    TITLE "0:"
    INDEX 01 00:38:71
  TRACK 34 AUDIO
    TITLE "4:cjc057_02196"
    INDEX 01 00:40:03
  TRACK 35 AUDIO
    TITLE "0:"
    INDEX 01 00:41:34
  TRACK 36 AUDIO
    TITLE "5:cjc057_02197"
    INDEX 01 00:41:65
  TRACK 37 AUDIO
    TITLE "0:"
    INDEX 01 00:43:64
  TRACK 38 AUDIO
    TITLE "4:cjc057_02198"
    INDEX 01 00:44:69
  TRACK 39 AUDIO
    TITLE "0:"
    INDEX 01 00:46:41
  TRACK 40 AUDIO
    TITLE "5:cjc057_02199"
    INDEX 01 00:46:74
  TRACK 41 AUDIO
    TITLE "0:"
    INDEX 01 00:49:69
  TRACK 42 AUDIO
    TITLE "4:cjc057_02200"
    INDEX 01 00:50:74
  TRACK 43 AUDIO
    TITLE "0:"
    INDEX 01 00:52:22
  TRACK 44 AUDIO
    TITLE "5:cjc057_02201"
    INDEX 01 00:52:53
  TRACK 45 AUDIO
    TITLE "0:"
    INDEX 01 00:54:01
  TRACK 46 AUDIO
    TITLE "4:cjc057_02202"
    INDEX 01 00:55:04
  TRACK 47 AUDIO
    TITLE "0:"
    INDEX 01 00:56:33
  TRACK 48 AUDIO
    TITLE "5:cjc057_02203"
    INDEX 01 00:56:63
  TRACK 49 AUDIO
    TITLE "0:"
    INDEX 01 00:59:57
  TRACK 50 AUDIO
    TITLE "4:cjc057_02204"
    INDEX 01 01:00:64
  TRACK 51 AUDIO
    TITLE "0:"
    INDEX 01 01:02:40
  TRACK 52 AUDIO
    TITLE "5:cjc057_02205"
    INDEX 01 01:02:71
  TRACK 53 AUDIO
    TITLE "0:"
    INDEX 01 01:04:68
  TRACK 54 AUDIO
    TITLE "4:cjc057_02206"
    INDEX 01 01:05:73
  TRACK 55 AUDIO
    TITLE "0:"
    INDEX 01 01:07:49
  TRACK 56 AUDIO
    TITLE "5:cjc057_02207"
    INDEX 01 01:08:05
  TRACK 57 AUDIO
    TITLE "0:"
    INDEX 01 01:11:11
  TRACK 58 AUDIO
    TITLE "4:cjc057_02208"
    INDEX 01 01:12:17
  TRACK 59 AUDIO
    TITLE "0:"
    INDEX 01 01:13:28
  TRACK 60 AUDIO
    TITLE "5:cjc057_02209"
    INDEX 01 01:13:59
  TRACK 61 AUDIO
    TITLE "0:"
    INDEX 01 01:15:25
  TRACK 62 AUDIO
    TITLE "4:cjc057_02210"
    INDEX 01 01:16:32
  TRACK 63 AUDIO
    TITLE "0:"
    INDEX 01 01:17:67
  TRACK 64 AUDIO
    TITLE "5:cjc057_02211"
    INDEX 01 01:18:19
  TRACK 65 AUDIO
    TITLE "0:"
    INDEX 01 01:20:57
  TRACK 66 AUDIO
    TITLE "4:cjc057_02212"
    INDEX 01 01:21:63
  TRACK 67 AUDIO
    TITLE "0:"
    INDEX 01 01:23:22
  TRACK 68 AUDIO
    TITLE "5:cjc057_02213"
    INDEX 01 01:23:54
  TRACK 69 AUDIO
    TITLE "0:"
    INDEX 01 01:27:03
  TRACK 70 AUDIO
    TITLE "4:cjc057_02214"
    INDEX 01 01:28:08
  TRACK 71 AUDIO
    TITLE "0:"
    INDEX 01 01:29:37
  TRACK 72 AUDIO
    TITLE "5:cjc057_02215"
    INDEX 01 01:29:70
  TRACK 73 AUDIO
    TITLE "0:"
    INDEX 01 01:32:04
  TRACK 74 AUDIO
    TITLE "4:cjc057_02216"
    INDEX 01 01:33:07
  TRACK 75 AUDIO
    TITLE "0:"
    INDEX 01 01:34:57
  TRACK 76 AUDIO
    TITLE "5:cjc057_02217"
    INDEX 01 01:35:12
  TRACK 77 AUDIO
    TITLE "0:"
    INDEX 01 01:37:54
  TRACK 78 AUDIO
    TITLE "4:cjc057_02218"
    INDEX 01 01:38:63
  TRACK 79 AUDIO
    TITLE "0:"
    INDEX 01 01:40:44
  TRACK 80 AUDIO
    TITLE "5:cjc057_02219"
    INDEX 01 01:41:01
  TRACK 81 AUDIO
    TITLE "0:"
    INDEX 01 01:42:31
  TRACK 82 AUDIO
    TITLE "4:cjc057_02220"
    INDEX 01 01:43:37
  TRACK 83 AUDIO
    TITLE "0:"
    INDEX 01 01:44:40
  TRACK 84 AUDIO
    TITLE "5:cjc057_02221"
    INDEX 01 01:44:72
  TRACK 85 AUDIO
    TITLE "0:"
    INDEX 01 01:47:05
  TRACK 86 AUDIO
    TITLE "4:cjc057_02222"
    INDEX 01 01:48:12
  TRACK 87 AUDIO
    TITLE "0:"
    INDEX 01 01:49:33
  TRACK 88 AUDIO
    TITLE "5:cjc057_02223"
    INDEX 01 01:49:65
  TRACK 89 AUDIO
    TITLE "0:"
    INDEX 01 01:51:15
  TRACK 90 AUDIO
    TITLE "4:cjc057_02224"
    INDEX 01 01:52:22
  TRACK 91 AUDIO
    TITLE "0:"
    INDEX 01 01:53:63
  TRACK 92 AUDIO
    TITLE "5:cjc057_02225"
    INDEX 01 01:54:21
  TRACK 93 AUDIO
    TITLE "0:"
    INDEX 01 01:56:61
  TRACK 94 AUDIO
    TITLE "4:cjc057_02226"
    INDEX 01 01:57:64
  TRACK 95 AUDIO
    TITLE "0:"
    INDEX 01 01:59:14
  TRACK 96 AUDIO
    TITLE "5:cjc057_02227"
    INDEX 01 01:59:44
  TRACK 97 AUDIO
    TITLE "0:"
    INDEX 01 02:01:17
  TRACK 98 AUDIO
    TITLE "4:cjc057_02228"
    INDEX 01 02:02:22
  TRACK 99 AUDIO
    TITLE "0:"
    INDEX 01 02:03:73
  TRACK 100 AUDIO
    TITLE "5:cjc057_02229"
    INDEX 01 02:04:29
  TRACK 101 AUDIO
    TITLE "0:"
    INDEX 01 02:06:38
  TRACK 102 AUDIO
    TITLE "4:cjc057_02230"
    INDEX 01 02:07:45
  TRACK 103 AUDIO
    TITLE "0:"
    INDEX 01 02:09:22
  TRACK 104 AUDIO
    TITLE "5:cjc057_02231"
    INDEX 01 02:09:54
  TRACK 105 AUDIO
    TITLE "0:"
    INDEX 01 02:11:74
  TRACK 106 AUDIO
    TITLE "4:cjc057_02232"
    INDEX 01 02:13:05
  TRACK 107 AUDIO
    TITLE "0:"
    INDEX 01 02:14:41
  TRACK 108 AUDIO
    TITLE "5:cjc057_02233"
    INDEX 01 02:14:73
  TRACK 109 AUDIO
    TITLE "0:"
    INDEX 01 02:18:18
  TRACK 110 AUDIO
    TITLE "4:cjc057_02234"
    INDEX 01 02:19:21
  TRACK 111 AUDIO
    TITLE "0:"
    INDEX 01 02:20:58
  TRACK 112 AUDIO
    TITLE "5:cjc057_02235"
    INDEX 01 02:21:14
  TRACK 113 AUDIO
    TITLE "0:"
    INDEX 01 02:24:08
